<?xml version="1.0" encoding="UTF-8" standalone="no"?>
<!DOCTYPE svg PUBLIC "-//W3C//DTD SVG 20010904//EN"
              "http://www.w3.org/TR/2001/REC-SVG-20010904/DTD/svg10.dtd">

<svg xmlns="http://www.w3.org/2000/svg"
     width="6.94444in" height="10.4167in"
     viewBox="0 0 500 750">
  <path id="Unnamed#2"
        fill="none" stroke="black" stroke-width="1"
        d="M 119.00,253.00
           C 146.00,172.00 421.00,315.00 378.00,230.00
             335.00,145.00 143.00,8.00 114.00,144.00
             85.00,280.00 374.00,460.00 321.00,357.00
             268.00,254.00 50.00,54.00 38.00,182.00
             26.00,310.00 65.00,392.00 113.00,330.00
             161.00,268.00 92.00,334.00 119.00,253.00 Z" />
  <path id="Unnamed#1"
        fill="none" stroke="black" stroke-width="1"
        d="M 113.00,495.00
           C 65.00,588.00 26.00,465.00 38.00,273.00
             50.00,81.00 268.00,381.00 321.00,535.50
             374.00,690.00 85.00,420.00 114.00,216.00
             143.00,12.00 335.00,217.50 378.00,345.00
             421.00,472.50 146.00,258.00 119.00,379.50
             92.00,501.00 161.00,402.00 113.00,495.00 Z" />
  <path id="Unnamed"
        fill="none" stroke="black" stroke-width="1"
        d="M 113.00,165.00
           C 65.00,196.00 26.00,155.00 38.00,91.00
             50.00,27.00 268.00,127.00 321.00,178.50
             374.00,230.00 85.00,140.00 114.00,72.00
             143.00,4.00 335.00,72.50 378.00,115.00
             421.00,157.50 146.00,86.00 119.00,126.50
             92.00,167.00 161.00,134.00 113.00,165.00 Z" />
</svg>
