<?xml version="1.0" encoding="UTF-8" standalone="no"?>
<!DOCTYPE svg PUBLIC "-//W3C//DTD SVG 20010904//EN"
              "http://www.w3.org/TR/2001/REC-SVG-20010904/DTD/svg10.dtd">

<svg xmlns="http://www.w3.org/2000/svg"
     width="6.94444in" height="6.94444in"
     viewBox="0 0 500 500">
  <path id="test-path"
        fill="none" stroke="black" stroke-width="1"
        d="M 250.00,250.00
           C 283.33,283.33 283.33,316.67 250.00,350.00
             283.66,317.00 317.00,317.00 350.00,350.00
             283.33,283.33 283.33,216.67 350.00,150.00
             283.67,217.00 217.00,217.00 150.00,150.00
             83.33,150.00 50.00,116.67 50.00,50.00M 250.00,250.00
           C 250.00,283.33 250.00,316.67 250.00,350.00
             283.33,350.00 316.67,350.00 350.00,350.00
             350.00,283.33 350.00,216.67 350.00,150.00
             283.33,150.00 216.67,150.00 150.00,150.00
             116.67,116.67 83.33,83.33 50.00,50.00M 250.00,250.00
           C 216.67,283.33 216.67,316.67 250.00,350.00
             283.00,383.67 316.33,383.67 350.00,350.00
             416.67,283.33 416.67,216.67 350.00,150.00
             283.00,83.67 216.33,83.67 150.00,150.00
             150.00,83.33 116.67,50.00 50.00,50.00M 250.00,250.00
           C 183.33,283.33 183.33,316.67 250.00,350.00
             282.65,418.03 315.99,418.03 350.00,350.00
             483.33,283.33 483.33,216.67 350.00,150.00
             282.67,17.99 216.01,17.99 150.00,150.00
             183.33,50.00 150.00,16.67 50.00,50.00" />
</svg>
