<?xml version="1.0" encoding="UTF-8" standalone="no"?>
<!DOCTYPE svg PUBLIC "-//W3C//DTD SVG 20010904//EN"
              "http://www.w3.org/TR/2001/REC-SVG-20010904/DTD/svg10.dtd">

<svg xmlns="http://www.w3.org/2000/svg"
     width="6.94444in" height="6.94444in"
     viewBox="0 0 500 500">
  <path id="SpikyFlower"
        fill="none" stroke="black" stroke-width="1"
        d="M 220.00,170.00
           C 250.00,150.00 260.00,170.00 250.00,150.00
             280.00,170.00 280.00,190.00 280.00,170.00
             300.00,200.00 280.00,210.00 300.00,200.00
             280.00,230.00 260.00,230.00 280.00,230.00
             250.00,250.00 240.00,230.00 250.00,250.00
             220.00,230.00 220.00,210.00 220.00,230.00
             200.00,200.00 220.00,190.00 200.00,200.00
             220.00,170.00 240.00,170.00 220.00,170.00 Z
           M 264.02,165.72
           C 300.00,163.40 298.66,185.72 300.00,163.40
             315.98,195.72 305.98,213.04 315.98,195.72
             318.30,231.70 295.98,230.36 318.30,231.70
             285.98,247.68 268.66,237.68 285.98,247.68
             250.00,250.00 251.34,227.68 250.00,250.00
             234.02,217.68 244.02,200.36 234.02,217.68
             231.70,181.70 254.02,183.04 231.70,181.70
             264.02,165.72 281.34,175.72 264.02,165.72 Z
           M 304.28,184.02
           C 336.60,200.00 324.28,218.66 336.60,200.00
             334.28,235.98 316.96,245.98 334.28,235.98
             318.30,268.30 299.64,255.98 318.30,268.30
             282.32,265.98 272.32,248.66 282.32,265.98
             250.00,250.00 262.32,231.34 250.00,250.00
             252.32,214.02 269.64,204.02 252.32,214.02
             268.30,181.70 286.96,194.02 268.30,181.70
             304.28,184.02 314.28,201.34 304.28,184.02 Z
           M 330.00,220.00
           C 350.00,250.00 330.00,260.00 350.00,250.00
             330.00,280.00 310.00,280.00 330.00,280.00
             300.00,300.00 290.00,280.00 300.00,300.00
             270.00,280.00 270.00,260.00 270.00,280.00
             250.00,250.00 270.00,240.00 250.00,250.00
             270.00,220.00 290.00,220.00 270.00,220.00
             300.00,200.00 310.00,220.00 300.00,200.00
             330.00,220.00 330.00,240.00 330.00,220.00 Z
           M 334.28,264.02
           C 336.60,300.00 314.28,298.66 336.60,300.00
             304.28,315.98 286.96,305.98 304.28,315.98
             268.30,318.30 269.64,295.98 268.30,318.30
             252.32,285.98 262.32,268.66 252.32,285.98
             250.00,250.00 272.32,251.34 250.00,250.00
             282.32,234.02 299.64,244.02 282.32,234.02
             318.30,231.70 316.96,254.02 318.30,231.70
             334.28,264.02 324.28,281.34 334.28,264.02 Z
           M 315.98,304.28
           C 300.00,336.60 281.34,324.28 300.00,336.60
             264.02,334.28 254.02,316.96 264.02,334.28
             231.70,318.30 244.02,299.64 231.70,318.30
             234.02,282.32 251.34,272.32 234.02,282.32
             250.00,250.00 268.66,262.32 250.00,250.00
             285.98,252.32 295.98,269.64 285.98,252.32
             318.30,268.30 305.98,286.96 318.30,268.30
             315.98,304.28 298.66,314.28 315.98,304.28 Z
           M 280.00,330.00
           C 250.00,350.00 240.00,330.00 250.00,350.00
             220.00,330.00 220.00,310.00 220.00,330.00
             200.00,300.00 220.00,290.00 200.00,300.00
             220.00,270.00 240.00,270.00 220.00,270.00
             250.00,250.00 260.00,270.00 250.00,250.00
             280.00,270.00 280.00,290.00 280.00,270.00
             300.00,300.00 280.00,310.00 300.00,300.00
             280.00,330.00 260.00,330.00 280.00,330.00 Z
           M 235.98,334.28
           C 200.00,336.60 201.34,314.28 200.00,336.60
             184.02,304.28 194.02,286.96 184.02,304.28
             181.70,268.30 204.02,269.64 181.70,268.30
             214.02,252.32 231.34,262.32 214.02,252.32
             250.00,250.00 248.66,272.32 250.00,250.00
             265.98,282.32 255.98,299.64 265.98,282.32
             268.30,318.30 245.98,316.96 268.30,318.30
             235.98,334.28 218.66,324.28 235.98,334.28 Z
           M 195.72,315.98
           C 163.40,300.00 175.72,281.34 163.40,300.00
             165.72,264.02 183.04,254.02 165.72,264.02
             181.70,231.70 200.36,244.02 181.70,231.70
             217.68,234.02 227.68,251.34 217.68,234.02
             250.00,250.00 237.68,268.66 250.00,250.00
             247.68,285.98 230.36,295.98 247.68,285.98
             231.70,318.30 213.04,305.98 231.70,318.30
             195.72,315.98 185.72,298.66 195.72,315.98 Z
           M 170.00,280.00
           C 150.00,250.00 170.00,240.00 150.00,250.00
             170.00,220.00 190.00,220.00 170.00,220.00
             200.00,200.00 210.00,220.00 200.00,200.00
             230.00,220.00 230.00,240.00 230.00,220.00
             250.00,250.00 230.00,260.00 250.00,250.00
             230.00,280.00 210.00,280.00 230.00,280.00
             200.00,300.00 190.00,280.00 200.00,300.00
             170.00,280.00 170.00,260.00 170.00,280.00 Z
           M 165.72,235.98
           C 163.40,200.00 185.72,201.34 163.40,200.00
             195.72,184.02 213.04,194.02 195.72,184.02
             231.70,181.70 230.36,204.02 231.70,181.70
             247.68,214.02 237.68,231.34 247.68,214.02
             250.00,250.00 227.68,248.66 250.00,250.00
             217.68,265.98 200.36,255.98 217.68,265.98
             181.70,268.30 183.04,245.98 181.70,268.30
             165.72,235.98 175.72,218.66 165.72,235.98 Z
           M 184.02,195.72
           C 200.00,163.40 218.66,175.72 200.00,163.40
             235.98,165.72 245.98,183.04 235.98,165.72
             268.30,181.70 255.98,200.36 268.30,181.70
             265.98,217.68 248.66,227.68 265.98,217.68
             250.00,250.00 231.34,237.68 250.00,250.00
             214.02,247.68 204.02,230.36 214.02,247.68
             181.70,231.70 194.02,213.04 181.70,231.70
             184.02,195.72 201.34,185.72 184.02,195.72 Z" />
</svg>
