<?xml version="1.0" encoding="UTF-8" standalone="no"?>
<!DOCTYPE svg PUBLIC "-//W3C//DTD SVG 20010904//EN"
              "http://www.w3.org/TR/2001/REC-SVG-20010904/DTD/svg10.dtd">

<svg xmlns="http://www.w3.org/2000/svg"
     width="6.94444in" height="6.94444in"
     viewBox="0 0 500 500">
  <path id="2-11-Test-bezier-1"
        fill="none" stroke="black" stroke-width="1"
        d="M 123.00,280.02
           C 138.40,256.70 123.00,280.02 163.40,300.00
             150.90,278.35 163.40,300.00 208.37,302.90
             185.05,287.50 208.37,302.90 228.35,262.50
             206.70,275.00 228.35,262.50 231.25,217.52
             215.85,240.85 231.25,217.52 190.85,197.55
             203.35,219.20 190.85,197.55 145.87,194.65
             169.20,210.05 145.87,194.65 125.90,235.05
             147.55,222.55 125.90,235.05 123.00,280.02 Z
           M 155.02,339.50
           C 156.70,311.60 155.02,339.50 200.00,336.60
             178.35,324.10 200.00,336.60 240.40,316.63
             212.50,314.95 240.40,316.63 237.50,271.65
             225.00,293.30 237.50,271.65 217.52,231.25
             215.85,259.15 217.52,231.25 172.55,234.15
             194.20,246.65 172.55,234.15 132.15,254.13
             160.05,255.80 132.15,254.13 135.05,299.10
             147.55,277.45 135.05,299.10 155.02,339.50 Z
           M 212.50,375.00
           C 200.00,350.00 212.50,375.00 250.00,350.00
             225.00,350.00 250.00,350.00 275.00,312.50
             250.00,325.00 275.00,312.50 250.00,275.00
             250.00,300.00 250.00,275.00 212.50,250.00
             225.00,275.00 212.50,250.00 175.00,275.00
             200.00,275.00 175.00,275.00 150.00,312.50
             175.00,300.00 150.00,312.50 175.00,350.00
             175.00,325.00 175.00,350.00 212.50,375.00 Z
           M 280.02,377.00
           C 256.70,361.60 280.02,377.00 300.00,336.60
             278.35,349.10 300.00,336.60 302.90,291.63
             287.50,314.95 302.90,291.63 262.50,271.65
             275.00,293.30 262.50,271.65 217.52,268.75
             240.85,284.15 217.52,268.75 197.55,309.15
             219.20,296.65 197.55,309.15 194.65,354.13
             210.05,330.80 194.65,354.13 235.05,374.10
             222.55,352.45 235.05,374.10 280.02,377.00 Z
           M 339.50,344.98
           C 311.60,343.30 339.50,344.98 336.60,300.00
             324.10,321.65 336.60,300.00 316.63,259.60
             314.95,287.50 316.63,259.60 271.65,262.50
             293.30,275.00 271.65,262.50 231.25,282.48
             259.15,284.15 231.25,282.48 234.15,327.45
             246.65,305.80 234.15,327.45 254.13,367.85
             255.80,339.95 254.13,367.85 299.10,364.95
             277.45,352.45 299.10,364.95 339.50,344.98 Z
           M 375.00,287.50
           C 350.00,300.00 375.00,287.50 350.00,250.00
             350.00,275.00 350.00,250.00 312.50,225.00
             325.00,250.00 312.50,225.00 275.00,250.00
             300.00,250.00 275.00,250.00 250.00,287.50
             275.00,275.00 250.00,287.50 275.00,325.00
             275.00,300.00 275.00,325.00 312.50,350.00
             300.00,325.00 312.50,350.00 350.00,325.00
             325.00,325.00 350.00,325.00 375.00,287.50 Z
           M 377.00,219.98
           C 361.60,243.30 377.00,219.98 336.60,200.00
             349.10,221.65 336.60,200.00 291.63,197.10
             314.95,212.50 291.63,197.10 271.65,237.50
             293.30,225.00 271.65,237.50 268.75,282.48
             284.15,259.15 268.75,282.48 309.15,302.45
             296.65,280.80 309.15,302.45 354.13,305.35
             330.80,289.95 354.13,305.35 374.10,264.95
             352.45,277.45 374.10,264.95 377.00,219.98 Z
           M 344.98,160.50
           C 343.30,188.40 344.98,160.50 300.00,163.40
             321.65,175.90 300.00,163.40 259.60,183.37
             287.50,185.05 259.60,183.37 262.50,228.35
             275.00,206.70 262.50,228.35 282.48,268.75
             284.15,240.85 282.48,268.75 327.45,265.85
             305.80,253.35 327.45,265.85 367.85,245.87
             339.95,244.20 367.85,245.87 364.95,200.90
             352.45,222.55 364.95,200.90 344.98,160.50 Z
           M 287.50,125.00
           C 300.00,150.00 287.50,125.00 250.00,150.00
             275.00,150.00 250.00,150.00 225.00,187.50
             250.00,175.00 225.00,187.50 250.00,225.00
             250.00,200.00 250.00,225.00 287.50,250.00
             275.00,225.00 287.50,250.00 325.00,225.00
             300.00,225.00 325.00,225.00 350.00,187.50
             325.00,200.00 350.00,187.50 325.00,150.00
             325.00,175.00 325.00,150.00 287.50,125.00 Z
           M 219.98,123.00
           C 243.30,138.40 219.98,123.00 200.00,163.40
             221.65,150.90 200.00,163.40 197.10,208.37
             212.50,185.05 197.10,208.37 237.50,228.35
             225.00,206.70 237.50,228.35 282.48,231.25
             259.15,215.85 282.48,231.25 302.45,190.85
             280.80,203.35 302.45,190.85 305.35,145.87
             289.95,169.20 305.35,145.87 264.95,125.90
             277.45,147.55 264.95,125.90 219.98,123.00 Z
           M 160.50,155.02
           C 188.40,156.70 160.50,155.02 163.40,200.00
             175.90,178.35 163.40,200.00 183.37,240.40
             185.05,212.50 183.37,240.40 228.35,237.50
             206.70,225.00 228.35,237.50 268.75,217.52
             240.85,215.85 268.75,217.52 265.85,172.55
             253.35,194.20 265.85,172.55 245.87,132.15
             244.20,160.05 245.87,132.15 200.90,135.05
             222.55,147.55 200.90,135.05 160.50,155.02 Z
           M 125.00,212.50
           C 150.00,200.00 125.00,212.50 150.00,250.00
             150.00,225.00 150.00,250.00 187.50,275.00
             175.00,250.00 187.50,275.00 225.00,250.00
             200.00,250.00 225.00,250.00 250.00,212.50
             225.00,225.00 250.00,212.50 225.00,175.00
             225.00,200.00 225.00,175.00 187.50,150.00
             200.00,175.00 187.50,150.00 150.00,175.00
             175.00,175.00 150.00,175.00 125.00,212.50 Z" />
</svg>
