<?xml version="1.0" encoding="UTF-8" standalone="no"?>
<!DOCTYPE svg PUBLIC "-//W3C//DTD SVG 20010904//EN"
              "http://www.w3.org/TR/2001/REC-SVG-20010904/DTD/svg10.dtd">

<svg xmlns="http://www.w3.org/2000/svg"
     width="6.94444in" height="6.94444in"
     viewBox="0 0 500 500">
  <path id="stickperson"
        fill="none" stroke="black" stroke-width="1"
        d="M 250.00,25.00
           C 208.58,25.00 175.00,58.58 175.00,100.00
             175.00,141.42 208.58,175.00 250.00,175.00
             291.42,175.00 325.00,141.42 325.00,100.00
             325.00,58.58 291.42,25.00 250.00,25.00 Z
           M 250.00,350.00
           C 250.00,350.00 250.00,175.00 250.00,175.00M 400.00,100.00
           C 391.67,191.67 341.67,233.33 250.00,225.00
             250.00,225.00 200.00,350.00 200.00,350.00M 175.00,480.00
           C 175.00,480.00 250.00,350.00 250.00,350.00
             250.00,350.00 325.00,480.00 325.00,480.00" />
</svg>
