<?xml version="1.0" encoding="UTF-8" standalone="no"?>
<!DOCTYPE svg PUBLIC "-//W3C//DTD SVG 20010904//EN"
              "http://www.w3.org/TR/2001/REC-SVG-20010904/DTD/svg10.dtd">

<svg xmlns="http://www.w3.org/2000/svg"
     width="6.94444in" height="6.94444in"
     viewBox="0 0 500 500">
  <path id="8-0-Path"
        fill="none" stroke="black" stroke-width="1"
        d="M 250.00,200.00
           C 194.77,200.00 150.00,222.39 150.00,250.00
             150.00,277.61 194.77,300.00 250.00,300.00
             305.23,300.00 350.00,277.61 350.00,250.00
             350.00,222.39 305.23,200.00 250.00,200.00 Z
           M 299.40,242.29
           C 290.88,187.72 261.86,146.94 234.57,151.20
             207.29,155.46 192.08,203.15 200.60,257.71
             209.12,312.28 238.14,353.06 265.43,348.80
             292.71,344.54 307.92,296.85 299.40,242.29 Z
           M 265.24,297.62
           C 317.84,280.79 353.66,245.82 345.24,219.52
             336.82,193.22 287.36,185.55 234.76,202.38
             182.16,219.21 146.34,254.18 154.76,280.48
             163.18,306.78 212.64,314.45 265.24,297.62 Z" />
</svg>
